custom-analysis
version=1
nRows=4
nColumns=98
inDegrees=no

This file contains tibia displacement and acting force.

Units are S.I. units (seconds, meters, Newtons, ...)
Angles are in degrees.

endheader
time	APT	SIT	knee_angle	aACL_R_force	pACL_R_force	aPCL_R_force	pPCL_R_force	aMCL_R_force	mMCL_R_force	pMCL_R_force	aLCL_R_force	mLCL_R_force	pLCL_R_force	aPCL_L_force	pPCL_L_force	aMCL_L_force	aLCL_L_force	aACL_R_length	pACL_R_length	aPCL_R_length	pPCL_R_length	aMCL_R_length	mMCL_R_length	pMCL_R_length	aLCL_R_length	mLCL_R_length	pLCL_R_length	aPCL_L_length	pPCL_L_length	aMCL_L_length	aLCL_L_length	aACL_R_strain	pACL_R_strain	aPCL_R_strain	pPCL_R_strain	aMCL_R_strain	mMCL_R_strain	pMCL_R_strain	aLCL_R_strain	mLCL_R_strain	pLCL_R_strain	aPCL_L_strain	pPCL_L_strain	aMCL_L_strain	aLCL_L_strain	femur_lat_meniscii_r.femur_lat_r.force.X	femur_lat_meniscii_r.femur_lat_r.force.Y	femur_lat_meniscii_r.femur_lat_r.force.Z	femur_lat_meniscii_r.femur_lat_r.torque.X	femur_lat_meniscii_r.femur_lat_r.torque.Y	femur_lat_meniscii_r.femur_lat_r.torque.Z	femur_lat_meniscii_r.meniscus_lat_r.force.X	femur_lat_meniscii_r.meniscus_lat_r.force.Y	femur_lat_meniscii_r.meniscus_lat_r.force.Z	femur_lat_meniscii_r.meniscus_lat_r.torque.X	femur_lat_meniscii_r.meniscus_lat_r.torque.Y	femur_lat_meniscii_r.meniscus_lat_r.torque.Z	femur_med_meniscii_r.femur_med_r.force.X	femur_med_meniscii_r.femur_med_r.force.Y	femur_med_meniscii_r.femur_med_r.force.Z	femur_med_meniscii_r.femur_med_r.torque.X	femur_med_meniscii_r.femur_med_r.torque.Y	femur_med_meniscii_r.femur_med_r.torque.Z	femur_med_meniscii_r.meniscus_med_r.force.X	femur_med_meniscii_r.meniscus_med_r.force.Y	femur_med_meniscii_r.meniscus_med_r.force.Z	femur_med_meniscii_r.meniscus_med_r.torque.X	femur_med_meniscii_r.meniscus_med_r.torque.Y	femur_med_meniscii_r.meniscus_med_r.torque.Z	femur_med_tibia_r.tibia_upper_r.force.X	femur_med_tibia_r.tibia_upper_r.force.Y	femur_med_tibia_r.tibia_upper_r.force.Z	femur_med_tibia_r.tibia_upper_r.torque.X	femur_med_tibia_r.tibia_upper_r.torque.Y	femur_med_tibia_r.tibia_upper_r.torque.Z	femur_med_tibia_r.femur_med_r.force.X	femur_med_tibia_r.femur_med_r.force.Y	femur_med_tibia_r.femur_med_r.force.Z	femur_med_tibia_r.femur_med_r.torque.X	femur_med_tibia_r.femur_med_r.torque.Y	femur_med_tibia_r.femur_med_r.torque.Z	femur_lat_tibia_r.tibia_upper_r.force.X	femur_lat_tibia_r.tibia_upper_r.force.Y	femur_lat_tibia_r.tibia_upper_r.force.Z	femur_lat_tibia_r.tibia_upper_r.torque.X	femur_lat_tibia_r.tibia_upper_r.torque.Y	femur_lat_tibia_r.tibia_upper_r.torque.Z	femur_lat_tibia_r.femur_lat_r.force.X	femur_lat_tibia_r.femur_lat_r.force.Y	femur_lat_tibia_r.femur_lat_r.force.Z	femur_lat_tibia_r.femur_lat_r.torque.X	femur_lat_tibia_r.femur_lat_r.torque.Y	femur_lat_tibia_r.femur_lat_r.torque.Z	femur_lat_meniscii_force_r	femur_med_meniscii_force_r	femur_lat_tibia_force_r	femur_med_tibia_force_r
      0.16393844	      0.01293242	      0.01701732	     56.40861749	      0.82952374	      0.00000000	    567.83825164	    367.98466543	      0.00000000	      0.00000000	      0.00000000	      0.00000000	      0.00000000	      0.00000000	      0.00000000	      0.00000000	      0.00000001	      0.00000000	      0.03149527	      0.02420708	      0.03489040	      0.03238100	      0.05944411	      0.05914887	      0.05626414	      0.05281416	      0.04810800	      0.04321830	      0.01525851	      0.01651186	      0.06550154	      0.04489616	      0.01579622	     -0.03398501	      0.12204753	      0.08341869	     -0.00971050	     -0.01078092	     -0.04195382	     -0.05650579	     -0.14578851	     -0.17432034	      0.00000079	     -0.32847694	      0.00000060	     -0.00000086	    119.36532898	    216.47006430	     25.22056548	    -15.32374748	      2.90662010	     46.69498883	   -119.36532898	   -216.47006430	    -25.22056548	      5.89303919	     -3.59330808	      3.83310057	     30.13408074	     27.24599837	     13.06269285	     -4.63866878	     -0.67738249	     12.07560024	    -30.13408074	    -27.24599837	    -13.06269285	     -0.36820801	      0.36740518	      0.12121648	   -723.40962635	   -682.19598364	    217.00647570	    -15.73380074	     16.39161517	     -0.83918421	    723.40962635	    682.19598364	   -217.00647570	    100.54748183	    -13.00662543	    294.21411485	      0.00000000	      0.00000000	      0.00000000	      0.00000000	      0.00000000	      0.00000000	      0.00000000	      0.00000000	      0.00000000	      0.00000000	      0.00000000	      0.00000000	    248.48228795	     42.67365925	      0.00000000	   1017.74488851
      0.16411979	      0.01294472	      0.01705161	     56.50582954	      0.82167050	      0.00000000	    569.72224747	    368.95082933	      0.00000000	      0.00000000	      0.00000000	      0.00000000	      0.00000000	      0.00000000	      0.00000000	      0.00000000	      0.00000001	      0.00000000	      0.03149479	      0.02420730	      0.03490119	      0.03238730	      0.05945305	      0.05915053	      0.05626092	      0.05280885	      0.04809834	      0.04320598	      0.01525851	      0.01651186	      0.06550154	      0.04489616	      0.01578060	     -0.03397612	      0.12239438	      0.08362953	     -0.00956149	     -0.01075314	     -0.04200863	     -0.05660079	     -0.14595986	     -0.17455576	      0.00000079	     -0.32847694	      0.00000060	     -0.00000086	    119.46771793	    216.79793792	     25.54962422	    -15.46729160	      2.91075187	     46.72655150	   -119.46771793	   -216.79793792	    -25.54962422	      5.90957709	     -3.60533391	      3.85823535	     30.35097661	     27.22725842	     12.86599151	     -4.55880319	     -0.68233302	     12.16170071	    -30.35097661	    -27.22725842	    -12.86599151	     -0.37242116	      0.37558198	      0.12024930	   -724.88651614	   -681.47277826	    217.03477919	    -15.70934077	     16.41998356	     -0.82651776	    724.88651614	    681.47277826	   -217.03477919	    100.53981862	    -13.03041483	    294.79953265	      0.00000000	      0.00000000	      0.00000000	      0.00000000	      0.00000000	      0.00000000	      0.00000000	      0.00000000	      0.00000000	      0.00000000	      0.00000000	      0.00000000	    248.85068779	     42.75557414	      0.00000000	   1018.31709412
      0.16440015	      0.01296361	      0.01710466	     56.65613729	      0.78975643	      0.00000000	    572.60715892	    370.39042117	      0.00000000	      0.00000000	      0.00000000	      0.00000000	      0.00000000	      0.00000000	      0.00000000	      0.00000000	      0.00000001	      0.00000000	      0.03149403	      0.02420766	      0.03491783	      0.03239704	      0.05946688	      0.05915312	      0.05625600	      0.05280055	      0.04808337	      0.04318691	      0.01525851	      0.01651186	      0.06550154	      0.04489616	      0.01575617	     -0.03396178	      0.12292962	      0.08395520	     -0.00933122	     -0.01070983	     -0.04209230	     -0.05674897	     -0.14622573	     -0.17492015	      0.00000079	     -0.32847694	      0.00000060	     -0.00000086	    119.47417338	    216.73459695	     25.92898214	    -15.62561679	      2.91283047	     46.71870327	   -119.47417338	   -216.73459695	    -25.92898214	      5.92068197	     -3.61679254	      3.88343727	     30.43700010	     26.96719272	     12.65143888	     -4.47841098	     -0.68465906	     12.19520470	    -30.43700010	    -26.96719272	    -12.65143888	     -0.37076706	      0.38144593	      0.11732679	   -727.40312257	   -679.58166624	    218.05464395	    -15.68669999	     16.49485019	     -0.83785173	    727.40312257	    679.58166624	   -218.05464395	    100.91921753	    -13.07859085	    295.80990762	      0.00000000	      0.00000000	      0.00000000	      0.00000000	      0.00000000	      0.00000000	      0.00000000	      0.00000000	      0.00000000	      0.00000000	      0.00000000	      0.00000000	    248.83785028	     42.58754940	      0.00000000	   1019.06544027
      0.16505264	      0.01300706	      0.01722838	     57.00601058	      0.73773260	      0.00000000	    579.19612418	    373.52106701	      0.00000000	      0.00000000	      0.00000000	      0.00000000	      0.00000000	      0.00000000	      0.00000000	      0.00000000	      0.00000001	      0.00000000	      0.03149220	      0.02420854	      0.03495632	      0.03241956	      0.05949893	      0.05915917	      0.05624478	      0.05278082	      0.04804819	      0.04314232	      0.01525851	      0.01651186	      0.06550154	      0.04489616	      0.01569730	     -0.03392682	      0.12416744	      0.08470869	     -0.00879721	     -0.01060869	     -0.04228340	     -0.05710147	     -0.14685035	     -0.17577190	      0.00000079	     -0.32847694	      0.00000060	     -0.00000086	    120.61016917	    217.42865146	     27.38522875	    -16.25275035	      2.94963225	     47.15400152	   -120.61016917	   -217.42865146	    -27.38522875	      5.98471676	     -3.68902836	      3.93905969	     31.11874755	     26.66651041	     12.30290572	     -4.34520713	     -0.69914180	     12.46912433	    -31.11874755	    -26.66651041	    -12.30290572	     -0.37079784	      0.40043898	      0.10689095	   -733.11477245	   -676.48384086	    219.80223097	    -15.63043405	     16.64209321	     -0.82071687	    733.11477245	    676.48384086	   -219.80223097	    101.55912069	    -13.17623214	    298.08880318	      0.00000000	      0.00000000	      0.00000000	      0.00000000	      0.00000000	      0.00000000	      0.00000000	      0.00000000	      0.00000000	      0.00000000	      0.00000000	      0.00000000	    250.14392285	     42.78832453	      0.00000000	   1021.46986117
